<svg width="25" height="25" viewBox="0 0 25 25" fill="none" xmlns="http://www.w3.org/2000/svg">
<g clip-path="url(#clip0_38_2553)">
<path d="M12.09 24.1099C13.3924 24.1099 14.6564 23.9067 15.882 23.5003C17.066 23.1035 18.1636 22.5355 19.1748 21.7963C20.1764 21.0635 21.0436 20.1963 21.7764 19.1947C22.5156 18.1835 23.0836 17.0859 23.4804 15.9019C23.8868 14.6763 24.09 13.4123 24.09 12.1099C24.09 10.8075 23.8868 9.54346 23.4804 8.31786C23.0836 7.13386 22.5156 6.03626 21.7764 5.02506C21.0436 4.02346 20.1764 3.15626 19.1748 2.42346C18.1636 1.68426 17.066 1.11626 15.882 0.719461C14.6564 0.313063 13.3924 0.109861 12.09 0.109861C10.7876 0.109861 9.52363 0.313063 8.29803 0.719461C7.11403 1.11626 6.01643 1.68426 5.00523 2.42346C4.00363 3.15626 3.13643 4.02346 2.40363 5.02506C1.66443 6.03626 1.09643 7.13386 0.699627 8.31786C0.293227 9.54346 0.0900269 10.8075 0.0900269 12.1099C0.0900269 13.4123 0.293227 14.6763 0.699627 15.9019C1.09643 17.0859 1.66443 18.1835 2.40363 19.1947C3.13643 20.1963 4.00363 21.0635 5.00523 21.7963C6.01643 22.5355 7.11403 23.1035 8.29803 23.5003C9.52363 23.9067 10.7876 24.1099 12.09 24.1099ZM13.818 7.54026C14.3812 7.56906 14.9108 7.67786 15.4068 7.86666C15.9252 8.06186 16.3956 8.33866 16.818 8.69706C17.3044 9.66346 17.6788 10.6923 17.9412 11.7835C18.2004 12.8555 18.346 13.9595 18.378 15.0955C17.9364 15.5915 17.4292 15.9771 16.8564 16.2523C16.2644 16.5371 15.6564 16.6795 15.0324 16.6795L14.7924 16.3819C14.61 16.1483 14.4596 15.9435 14.3412 15.7675C14.7252 15.6715 15.0772 15.5195 15.3972 15.3115C15.7364 15.0875 16.018 14.8123 16.242 14.4859C15.9732 14.6491 15.7716 14.7691 15.6372 14.8459C15.4132 14.9739 15.2116 15.0779 15.0324 15.1579C14.802 15.2667 14.5428 15.3627 14.2548 15.4459C14.082 15.4971 13.8212 15.5627 13.4724 15.6427V15.6475C13.1652 15.6859 12.9348 15.7131 12.7812 15.7291C12.5252 15.7547 12.2948 15.7675 12.09 15.7675C11.8852 15.7675 11.6548 15.7547 11.3988 15.7291C11.2452 15.7131 11.0148 15.6859 10.7076 15.6475V15.6427C10.3588 15.5627 10.098 15.4971 9.92523 15.4459C9.63723 15.3627 9.37803 15.2667 9.14763 15.1579C8.94923 15.0683 8.72043 14.9483 8.46123 14.7979C8.34603 14.7307 8.17323 14.6283 7.94283 14.4907L7.93803 14.4859C8.16203 14.8123 8.44363 15.0875 8.78283 15.3115C9.10283 15.5195 9.45483 15.6715 9.83883 15.7675C9.72043 15.9435 9.57003 16.1483 9.38763 16.3819L9.14763 16.6795C8.52363 16.6795 7.91563 16.5371 7.32363 16.2523C6.75083 15.9771 6.24363 15.5915 5.80203 15.0955C5.83403 13.9595 5.97963 12.8555 6.23883 11.7835C6.50123 10.6923 6.87563 9.66346 7.36203 8.69706C7.78443 8.33866 8.25483 8.06186 8.77323 7.86666C9.26923 7.67786 9.79883 7.56906 10.362 7.54026L10.5348 7.72266C10.058 7.84106 9.59403 8.02026 9.14283 8.26026C8.71723 8.49066 8.29643 8.77866 7.88043 9.12426C8.37643 8.84586 8.89323 8.62026 9.43083 8.44746C9.98123 8.26826 10.5412 8.14826 11.1108 8.08746C11.2644 8.05866 11.4276 8.04106 11.6004 8.03466C11.706 8.02826 11.8692 8.02506 12.09 8.02506C12.3108 8.02506 12.474 8.02826 12.5796 8.03466C12.7524 8.04106 12.9156 8.05866 13.0692 8.08746C13.6388 8.14826 14.1988 8.26826 14.7492 8.44746C15.2868 8.62026 15.8036 8.84586 16.2996 9.12426C15.8836 8.77866 15.4628 8.49066 15.0372 8.26026C14.586 8.02026 14.122 7.84106 13.6452 7.72266L13.818 7.54026ZM9.09003 12.7819C9.09003 12.9995 9.14283 13.2043 9.24843 13.3963C9.34763 13.5787 9.48123 13.7251 9.64923 13.8355C9.81723 13.9459 9.99643 14.0011 10.1868 14.0011C10.3772 14.0011 10.5564 13.9459 10.7244 13.8355C10.8924 13.7251 11.026 13.5787 11.1252 13.3963C11.2308 13.2043 11.2836 12.9987 11.2836 12.7795C11.2836 12.5603 11.2308 12.3563 11.1252 12.1675C11.026 11.9851 10.8924 11.8387 10.7244 11.7283C10.5564 11.6179 10.3772 11.5627 10.1868 11.5627C9.99643 11.5627 9.81723 11.6179 9.64923 11.7283C9.48123 11.8387 9.34763 11.9851 9.24843 12.1675C9.14283 12.3563 9.09003 12.5611 9.09003 12.7819ZM12.8964 12.7819C12.8964 12.9995 12.9492 13.2043 13.0548 13.3963C13.154 13.5787 13.2876 13.7251 13.4556 13.8355C13.6236 13.9459 13.8028 14.0011 13.9932 14.0011C14.1836 14.0011 14.3628 13.9459 14.5308 13.8355C14.6988 13.7251 14.8324 13.5787 14.9316 13.3963C15.0372 13.2043 15.09 12.9987 15.09 12.7795C15.09 12.5603 15.0372 12.3563 14.9316 12.1675C14.8324 11.9851 14.6988 11.8387 14.5308 11.7283C14.3628 11.6179 14.1836 11.5627 13.9932 11.5627C13.8028 11.5627 13.6236 11.6179 13.4556 11.7283C13.2876 11.8387 13.154 11.9851 13.0548 12.1675C12.9492 12.3563 12.8964 12.5611 12.8964 12.7819Z" fill="#A4B1CD"/>
</g>
<defs>
<clipPath id="clip0_38_2553">
<rect width="24.02" height="24" fill="white" transform="matrix(1 0 0 -1 0.0800171 24.1099)"/>
</clipPath>
</defs>
</svg>
