<svg width="25" height="25" viewBox="0 0 25 25" fill="none" xmlns="http://www.w3.org/2000/svg">
<g clip-path="url(#clip0_38_2547)">
<path d="M12.68 24.1099C13.9824 24.1099 15.2464 23.9067 16.472 23.5003C17.656 23.1035 18.7536 22.5355 19.7648 21.7963C20.7664 21.0635 21.6336 20.1963 22.3664 19.1947C23.1056 18.1835 23.6736 17.0859 24.0704 15.9019C24.4768 14.6763 24.68 13.4123 24.68 12.1099C24.68 10.8075 24.4768 9.54346 24.0704 8.31786C23.6736 7.13386 23.1056 6.03626 22.3664 5.02506C21.6336 4.02346 20.7664 3.15626 19.7648 2.42346C18.7536 1.68426 17.656 1.11626 16.472 0.719461C15.2464 0.313063 13.9824 0.109861 12.68 0.109861C11.3776 0.109861 10.1136 0.313063 8.88799 0.719461C7.70399 1.11626 6.60639 1.68426 5.59519 2.42346C4.59359 3.15626 3.72639 4.02346 2.99359 5.02506C2.25439 6.03626 1.68639 7.13386 1.28959 8.31786C0.883193 9.54346 0.679993 10.8075 0.679993 12.1099C0.679993 13.4123 0.883193 14.6763 1.28959 15.9019C1.68639 17.0859 2.25439 18.1835 2.99359 19.1947C3.72639 20.1963 4.59359 21.0635 5.59519 21.7963C6.60639 22.5355 7.70399 23.1035 8.88799 23.5003C10.1136 23.9067 11.3776 24.1099 12.68 24.1099ZM11.312 18.3979V12.8971H9.31519V10.6219H11.312V8.88426C11.312 8.23786 11.4352 7.68106 11.6816 7.21386C11.9216 6.76266 12.2648 6.41786 12.7112 6.17946C13.1576 5.94106 13.6816 5.82186 14.2832 5.82186C14.6416 5.82186 15.0432 5.84746 15.488 5.89866C15.7088 5.92426 15.8944 5.94986 16.0448 5.97546V7.91466H15.056C14.7456 7.91466 14.4896 7.97546 14.288 8.09706C14.1088 8.20266 13.9744 8.35306 13.8848 8.54826C13.808 8.72106 13.7696 8.91946 13.7696 9.14346V10.6219H15.9536L15.6032 12.8971H13.7696V18.3979H11.312Z" fill="#A4B1CD"/>
</g>
<defs>
<clipPath id="clip0_38_2547">
<rect width="24.02" height="24" fill="white" transform="matrix(1 0 0 -1 0.669983 24.1099)"/>
</clipPath>
</defs>
</svg>
