<svg width="25" height="25" viewBox="0 0 25 25" fill="none" xmlns="http://www.w3.org/2000/svg">
<g clip-path="url(#clip0_38_2544)">
<path d="M12.98 24.1099C14.2824 24.1099 15.5464 23.9067 16.772 23.5003C17.956 23.1035 19.0536 22.5355 20.0648 21.7963C21.0664 21.0635 21.9336 20.1963 22.6664 19.1947C23.4056 18.1835 23.9736 17.0859 24.3704 15.9019C24.7768 14.6763 24.98 13.4123 24.98 12.1099C24.98 10.8075 24.7768 9.54346 24.3704 8.31786C23.9736 7.13386 23.4056 6.03626 22.6664 5.02506C21.9336 4.02346 21.0664 3.15626 20.0648 2.42346C19.0536 1.68426 17.956 1.11626 16.772 0.719461C15.5464 0.313063 14.2824 0.109861 12.98 0.109861C11.6776 0.109861 10.4136 0.313063 9.18798 0.719461C8.00398 1.11626 6.90638 1.68426 5.89518 2.42346C4.89358 3.15626 4.02638 4.02346 3.29358 5.02506C2.55438 6.03626 1.98638 7.13386 1.58958 8.31786C1.18318 9.54346 0.97998 10.8075 0.97998 12.1099C0.97998 13.4123 1.18318 14.6763 1.58958 15.9019C1.98638 17.0859 2.55438 18.1835 3.29358 19.1947C4.02638 20.1963 4.89358 21.0635 5.89518 21.7963C6.90638 22.5355 8.00398 23.1035 9.18798 23.5003C10.4136 23.9067 11.6776 24.1099 12.98 24.1099ZM8.47758 5.62506C8.70798 5.53226 8.94798 5.46026 9.19758 5.40906C9.47598 5.35466 9.78958 5.31786 10.1384 5.29866C10.58 5.27946 10.9896 5.26666 11.3672 5.26026C11.684 5.25706 12.2168 5.25546 12.9656 5.25546C13.8488 5.25226 14.4616 5.25386 14.804 5.26026C15.0728 5.26346 15.4024 5.27306 15.7928 5.28906C16.1416 5.30506 16.4568 5.34026 16.7384 5.39466C16.9848 5.44586 17.2248 5.51626 17.4584 5.60586C17.692 5.69546 17.9032 5.80106 18.092 5.92266C18.2936 6.05066 18.4872 6.20746 18.6728 6.39306C18.8584 6.57866 19.0168 6.77226 19.148 6.97386C19.2696 7.16266 19.376 7.37306 19.4672 7.60506C19.5584 7.83706 19.6296 8.07786 19.6808 8.32746C19.7352 8.60586 19.772 8.91946 19.7912 9.26826C19.804 9.53386 19.812 9.73866 19.8152 9.88266C19.8216 10.0811 19.8264 10.3195 19.8296 10.5979C19.8328 10.9115 19.8344 11.4107 19.8344 12.0955C19.8376 12.9851 19.836 13.5979 19.8296 13.9339C19.8264 14.2059 19.8168 14.5355 19.8008 14.9227C19.7848 15.2715 19.7496 15.5867 19.6952 15.8683C19.644 16.1179 19.5736 16.3587 19.484 16.5907C19.3944 16.8227 19.2888 17.0331 19.1672 17.2219C19.0392 17.4235 18.8824 17.6171 18.6968 17.8027C18.5112 17.9883 18.3176 18.1467 18.116 18.2779C17.9272 18.3995 17.7168 18.5059 17.4848 18.5971C17.2528 18.6883 17.012 18.7595 16.7624 18.8107C16.484 18.8683 16.1704 18.9051 15.8216 18.9211C15.4312 18.9371 15.1016 18.9483 14.8328 18.9547C14.4936 18.9611 13.8808 18.9643 12.9944 18.9643C11.9768 18.9675 11.2936 18.9659 10.9448 18.9595C10.7528 18.9531 10.4936 18.9435 10.1672 18.9307C9.81838 18.9147 9.50478 18.8795 9.22638 18.8251C8.97678 18.7739 8.73518 18.7035 8.50158 18.6139C8.26798 18.5243 8.05678 18.4187 7.86798 18.2971C7.66638 18.1691 7.47278 18.0123 7.28718 17.8267C7.10158 17.6411 6.94318 17.4475 6.81198 17.2459C6.69038 17.0571 6.58398 16.8467 6.49278 16.6147C6.40158 16.3827 6.33038 16.1419 6.27918 15.8923C6.22478 15.6139 6.18798 15.3003 6.16878 14.9515C6.15278 14.5643 6.14158 14.2347 6.13518 13.9627C6.12878 13.6267 6.12478 13.0139 6.12318 12.1243C6.12158 11.2347 6.12398 10.6219 6.13038 10.2859C6.13358 10.0139 6.14318 9.68426 6.15918 9.29706C6.17518 8.94826 6.21038 8.63306 6.26478 8.35146C6.31598 8.10186 6.38638 7.86106 6.47598 7.62906C6.56558 7.39706 6.67118 7.18666 6.79278 6.99786C6.92078 6.79626 7.07758 6.60266 7.26318 6.41706C7.44878 6.23146 7.64238 6.07306 7.84398 5.94186C8.03278 5.82026 8.24398 5.71466 8.47758 5.62506ZM9.43278 17.6059C9.66318 17.6539 9.92558 17.6843 10.22 17.6971C10.6072 17.7131 10.9304 17.7227 11.1896 17.7259C11.5192 17.7323 12.1192 17.7339 12.9896 17.7307C13.8696 17.7307 14.4696 17.7275 14.7896 17.7211C15.0584 17.7147 15.3816 17.7035 15.7592 17.6875C16.1112 17.6715 16.4168 17.6299 16.676 17.5627C16.7944 17.5339 16.9144 17.4955 17.036 17.4475C17.196 17.3867 17.3368 17.3163 17.4584 17.2363C17.58 17.1563 17.7008 17.0555 17.8208 16.9339C17.9408 16.8123 18.0408 16.6899 18.1208 16.5667C18.2008 16.4435 18.2712 16.3035 18.332 16.1467C18.3928 15.9899 18.4392 15.8299 18.4712 15.6667C18.5224 15.4363 18.5544 15.1707 18.5672 14.8699C18.5832 14.4891 18.5928 14.1659 18.596 13.9003C18.6024 13.5803 18.6048 12.9819 18.6032 12.1051C18.6016 11.2283 18.5976 10.6267 18.5912 10.3003C18.5848 10.0379 18.5736 9.71466 18.5576 9.33066C18.5416 9.02986 18.5096 8.76426 18.4616 8.53386C18.4264 8.37066 18.3784 8.21226 18.3176 8.05866C18.2536 7.89866 18.1816 7.75706 18.1016 7.63386C18.0216 7.51066 17.9216 7.38906 17.8016 7.26906C17.6816 7.14906 17.56 7.04906 17.4368 6.96906C17.3136 6.88906 17.172 6.81866 17.012 6.75786C16.8584 6.70026 16.7 6.65386 16.5368 6.61866C16.3064 6.57066 16.0408 6.54026 15.74 6.52746C15.356 6.50826 15.0328 6.49706 14.7704 6.49386C14.444 6.49066 13.8416 6.48986 12.9632 6.49146C12.0848 6.49306 11.4872 6.49706 11.1704 6.50346C10.9016 6.50666 10.5784 6.51786 10.2008 6.53706C9.89998 6.54986 9.63438 6.58186 9.40398 6.63306C9.23758 6.66826 9.07758 6.71466 8.92398 6.77226C8.72878 6.85226 8.55758 6.94506 8.41038 7.05066C8.32078 7.11786 8.22958 7.19786 8.13678 7.29066C8.01838 7.40906 7.91918 7.52986 7.83918 7.65306C7.75918 7.77626 7.68878 7.91626 7.62798 8.07306C7.56718 8.22986 7.51918 8.38986 7.48398 8.55306C7.43598 8.78666 7.40558 9.05226 7.39278 9.34986C7.37678 9.73386 7.36718 10.0571 7.36398 10.3195C7.35758 10.6459 7.35598 11.2475 7.35918 12.1243C7.36238 13.0011 7.36558 13.6011 7.36878 13.9243C7.37518 14.1899 7.38638 14.5131 7.40238 14.8939C7.42158 15.2811 7.47118 15.6139 7.55118 15.8923C7.57678 15.9819 7.60718 16.0731 7.64238 16.1659C7.70638 16.3259 7.77838 16.4675 7.85838 16.5907C7.93838 16.7139 8.03838 16.8347 8.15838 16.9531C8.27838 17.0715 8.39998 17.1707 8.52318 17.2507C8.64638 17.3307 8.78638 17.4011 8.94318 17.4619C9.09998 17.5227 9.26318 17.5707 9.43278 17.6059ZM15.836 8.64426C15.82 8.58026 15.812 8.51306 15.812 8.44266C15.812 8.33386 15.8328 8.22906 15.8744 8.12826C15.916 8.02746 15.9752 7.93866 16.052 7.86186C16.1288 7.78506 16.2176 7.72586 16.3184 7.68426C16.4192 7.64266 16.5248 7.62186 16.6352 7.62186C16.7456 7.62186 16.8504 7.64266 16.9496 7.68426C17.0008 7.70666 17.0472 7.73066 17.0888 7.75626C17.2264 7.84906 17.3272 7.97226 17.3912 8.12586C17.4552 8.27946 17.4712 8.43786 17.4392 8.60106C17.4072 8.76426 17.3328 8.90506 17.216 9.02346C17.0992 9.14186 16.9592 9.21786 16.796 9.25146C16.6328 9.28506 16.4744 9.26986 16.3208 9.20586C16.2152 9.16106 16.1224 9.09706 16.0424 9.01386C16.0072 8.97866 15.9768 8.94186 15.9512 8.90346C15.8968 8.82346 15.8584 8.73706 15.836 8.64426ZM12.9848 15.6283C12.508 15.6315 12.052 15.5403 11.6168 15.3547C11.1944 15.1787 10.8208 14.9283 10.496 14.6035C10.1712 14.2787 9.91918 13.9067 9.73998 13.4875C9.55438 13.0523 9.46078 12.5955 9.45918 12.1171C9.45758 11.6387 9.54958 11.1819 9.73518 10.7467C9.91118 10.3243 10.1616 9.95066 10.4864 9.62586C10.8112 9.30106 11.1832 9.04906 11.6024 8.86986C12.0376 8.68426 12.4944 8.59066 12.9728 8.58906C13.4512 8.58746 13.908 8.67946 14.3432 8.86506C14.7656 9.04106 15.1392 9.29146 15.464 9.61626C15.7888 9.94106 16.0408 10.3131 16.22 10.7323C16.4056 11.1675 16.4992 11.6243 16.5008 12.1027C16.5024 12.5811 16.4104 13.0379 16.2248 13.4731C16.0488 13.8955 15.7984 14.2691 15.4736 14.5939C15.1488 14.9187 14.7768 15.1707 14.3576 15.3499C13.9224 15.5355 13.4648 15.6283 12.9848 15.6283ZM11.0792 10.8427C10.9512 11.0315 10.8552 11.2339 10.7912 11.4499C10.7272 11.6659 10.6952 11.8875 10.6952 12.1147C10.6952 12.3003 10.7176 12.4827 10.7624 12.6619C10.7912 12.7739 10.8264 12.8827 10.868 12.9883C10.9864 13.2699 11.1528 13.5171 11.3672 13.7299C11.5816 13.9427 11.8288 14.1067 12.1088 14.2219C12.3888 14.3371 12.6808 14.3947 12.9848 14.3947C13.212 14.3947 13.4336 14.3619 13.6496 14.2963C13.8656 14.2307 14.0672 14.1347 14.2544 14.0083C14.4416 13.8819 14.6064 13.7315 14.7488 13.5571C14.8912 13.3827 15.0056 13.1907 15.092 12.9811C15.1784 12.7715 15.2328 12.5539 15.2552 12.3283C15.2776 12.1027 15.2664 11.8795 15.2216 11.6587C15.1768 11.4379 15.1008 11.2275 14.9936 11.0275C14.8864 10.8275 14.7528 10.6483 14.5928 10.4899C14.4328 10.3315 14.2528 10.1987 14.0528 10.0915C13.8528 9.98426 13.6424 9.90906 13.4216 9.86586C13.2008 9.82266 12.9776 9.81226 12.752 9.83466C12.5264 9.85706 12.3096 9.91226 12.1016 10.0003C11.8936 10.0883 11.7024 10.2035 11.528 10.3459C11.3536 10.4883 11.204 10.6539 11.0792 10.8427Z" fill="#A4B1CD"/>
</g>
<defs>
<clipPath id="clip0_38_2544">
<rect width="24.02" height="24" fill="white" transform="matrix(1 0 0 -1 0.969971 24.1099)"/>
</clipPath>
</defs>
</svg>
