<svg width="25" height="25" viewBox="0 0 25 25" fill="none" xmlns="http://www.w3.org/2000/svg">
<g clip-path="url(#clip0_38_2538)">
<path d="M12.01 0.109862C10.7076 0.109862 9.44361 0.313062 8.21801 0.719462C7.03401 1.11626 5.93641 1.68426 4.92521 2.42346C3.92361 3.15626 3.05641 4.02346 2.32361 5.02506C1.58441 6.03626 1.01641 7.13386 0.61961 8.31786C0.21321 9.54346 0.0100098 10.8075 0.0100098 12.1099C0.0100098 13.4123 0.21321 14.6763 0.61961 15.9019C1.01641 17.0859 1.58441 18.1835 2.32361 19.1947C3.05641 20.1963 3.92361 21.0635 4.92521 21.7963C5.93641 22.5355 7.03401 23.1035 8.21801 23.5003C9.44361 23.9067 10.7076 24.1099 12.01 24.1099C13.3124 24.1099 14.5764 23.9067 15.802 23.5003C16.986 23.1035 18.0836 22.5355 19.0948 21.7963C20.0964 21.0635 20.9636 20.1963 21.6964 19.1947C22.4356 18.1835 23.0036 17.0859 23.4004 15.9019C23.8068 14.6763 24.01 13.4123 24.01 12.1099C24.01 10.8075 23.8068 9.54346 23.4004 8.31786C23.0036 7.13386 22.4356 6.03626 21.6964 5.02506C20.9636 4.02346 20.0964 3.15626 19.0948 2.42346C18.0836 1.68426 16.986 1.11626 15.802 0.719462C14.5764 0.313062 13.3124 0.109862 12.01 0.109862ZM8.77961 17.6491H6.47081V9.34026H8.77961V17.6491ZM7.61801 8.41866H7.60361C7.39241 8.41546 7.19801 8.36186 7.02041 8.25786C6.84281 8.15386 6.70201 8.01226 6.59801 7.83306C6.49401 7.65386 6.44281 7.45866 6.44441 7.24746C6.44601 7.03626 6.49881 6.84106 6.60281 6.66186C6.70681 6.48266 6.84841 6.34106 7.02761 6.23706C7.20681 6.13306 7.40201 6.08106 7.61321 6.08106C7.82441 6.08106 8.01881 6.13306 8.19641 6.23706C8.37401 6.34106 8.51561 6.48266 8.62121 6.66186C8.72681 6.84106 8.77961 7.03626 8.77961 7.24746C8.77961 7.45866 8.72761 7.65386 8.62361 7.83306C8.51961 8.01226 8.37881 8.15386 8.20121 8.25786C8.02361 8.36186 7.82921 8.41546 7.61801 8.41866ZM17.5492 17.6491H15.2404V13.4923C15.2404 13.0539 15.1748 12.6907 15.0436 12.4027C14.922 12.1403 14.7524 11.9451 14.5348 11.8171C14.3396 11.7051 14.114 11.6491 13.858 11.6491C13.6148 11.6491 13.3956 11.7051 13.2004 11.8171C12.9796 11.9483 12.8068 12.1435 12.682 12.4027C12.5412 12.6939 12.4708 13.0571 12.4708 13.4923V17.6491H10.162V9.34026H12.4708V10.7275C12.6116 10.4363 12.8004 10.1835 13.0372 9.96906C13.274 9.75466 13.5428 9.59306 13.8436 9.48426C14.1444 9.37546 14.4564 9.32746 14.7796 9.34026C15.3876 9.34026 15.8996 9.48906 16.3156 9.78666C16.7252 10.0747 17.034 10.4955 17.242 11.0491C17.4468 11.5963 17.5492 12.2571 17.5492 13.0315V17.6491Z" fill="#A4B1CD"/>
</g>
<defs>
<clipPath id="clip0_38_2538">
<rect width="24.02" height="24" fill="white" transform="matrix(1 0 0 -1 0 24.1099)"/>
</clipPath>
</defs>
</svg>
