<svg width="26" height="25" viewBox="0 0 26 25" fill="none" xmlns="http://www.w3.org/2000/svg">
<g clip-path="url(#clip0_38_2541)">
<path d="M12.7044 24.1099C14.0068 24.1099 15.2708 23.9067 16.4964 23.5003C17.6804 23.1035 18.778 22.5355 19.7892 21.7963C20.7876 21.0635 21.6532 20.1963 22.386 19.1947C23.1284 18.1835 23.6964 17.0859 24.09 15.9019C24.4996 14.6763 24.7044 13.4123 24.7044 12.1099C24.7044 10.8075 24.4996 9.54346 24.09 8.31786C23.6964 7.13386 23.1284 6.03626 22.386 5.02506C21.6532 4.02346 20.7876 3.15626 19.7892 2.42346C18.778 1.68426 17.6804 1.11626 16.4964 0.719461C15.2708 0.313063 14.006 0.109861 12.702 0.109861C11.398 0.109861 10.1332 0.313063 8.90761 0.719461C7.72361 1.11626 6.62601 1.68426 5.61481 2.42346C4.61641 3.15626 3.75081 4.02346 3.01801 5.02506C2.27561 6.03626 1.70761 7.13386 1.31401 8.31786C0.907607 9.54346 0.704407 10.8075 0.704407 12.1099C0.704407 13.4123 0.907607 14.6763 1.31401 15.9019C1.70761 17.0859 2.27561 18.1835 3.01801 19.1947C3.75081 20.1963 4.61641 21.0635 5.61481 21.7963C6.62601 22.5355 7.72361 23.1035 8.90761 23.5003C10.1332 23.9067 11.3988 24.1099 12.7044 24.1099ZM18.162 9.67626C18.162 10.4283 18.05 11.1819 17.826 11.9371C17.5988 12.7083 17.2692 13.4299 16.8372 14.1019C16.3828 14.8059 15.8404 15.4171 15.21 15.9355C14.5412 16.4891 13.7972 16.9131 12.978 17.2075C12.098 17.5243 11.1588 17.6827 10.1604 17.6827C9.39561 17.6827 8.64601 17.5755 7.91161 17.3611C7.17721 17.1467 6.48841 16.8315 5.84521 16.4155C6.06921 16.4443 6.29321 16.4587 6.51721 16.4587C7.15081 16.4587 7.76681 16.3555 8.36521 16.1491C8.96361 15.9427 9.51241 15.6443 10.0116 15.2539C9.71721 15.2475 9.43161 15.1971 9.15481 15.1027C8.87801 15.0083 8.62201 14.8731 8.38681 14.6971C8.15161 14.5211 7.94841 14.3139 7.77721 14.0755C7.60601 13.8371 7.47561 13.5787 7.38601 13.3003C7.81161 13.3803 8.23401 13.3643 8.65321 13.2523C8.33641 13.1883 8.03881 13.0723 7.76041 12.9043C7.48201 12.7363 7.23961 12.5267 7.03321 12.2755C6.82681 12.0243 6.66921 11.7451 6.56041 11.4379C6.45161 11.1307 6.39721 10.8155 6.39721 10.4923V10.4587C6.79401 10.6763 7.21801 10.7931 7.66921 10.8091C7.37161 10.6075 7.12121 10.3595 6.91801 10.0651C6.71481 9.77066 6.57321 9.44906 6.49321 9.10026C6.41321 8.75146 6.39961 8.40026 6.45241 8.04666C6.50521 7.69306 6.62121 7.36106 6.80041 7.05066C7.15561 7.48586 7.55081 7.87946 7.98601 8.23146C8.42121 8.58346 8.88841 8.88586 9.38761 9.13866C9.88681 9.39146 10.4068 9.58986 10.9476 9.73386C11.4884 9.87786 12.0388 9.96266 12.5988 9.98826C12.5284 9.68746 12.5084 9.38346 12.5388 9.07626C12.5692 8.76906 12.6484 8.47386 12.7764 8.19066C12.9044 7.90746 13.0748 7.65306 13.2876 7.42746C13.5004 7.20186 13.7428 7.01626 14.0148 6.87066C14.2868 6.72506 14.5756 6.62666 14.8812 6.57546C15.1868 6.52426 15.4924 6.52426 15.798 6.57546C16.1036 6.62666 16.3932 6.72426 16.6668 6.86826C16.9404 7.01226 17.1828 7.19786 17.394 7.42506C18.0308 7.30026 18.626 7.07306 19.1796 6.74346C19.074 7.06666 18.9148 7.36266 18.702 7.63146C18.4892 7.90026 18.2372 8.12266 17.946 8.29866C18.506 8.23466 19.0436 8.08746 19.5588 7.85706C19.178 8.42666 18.7108 8.91146 18.1572 9.31146C18.1604 9.43306 18.162 9.55466 18.162 9.67626Z" fill="#A4B1CD"/>
</g>
<defs>
<clipPath id="clip0_38_2541">
<rect width="24.58" height="24" fill="white" transform="matrix(1 0 0 -1 0.700012 24.1099)"/>
</clipPath>
</defs>
</svg>
