<svg width="25" height="25" viewBox="0 0 25 25" fill="none" xmlns="http://www.w3.org/2000/svg">
<g clip-path="url(#clip0_38_2550)">
<path d="M12.39 24.1099C13.6924 24.1099 14.9564 23.9067 16.182 23.5003C17.366 23.1035 18.4636 22.5355 19.4748 21.7963C20.4764 21.0635 21.3436 20.1963 22.0764 19.1947C22.8156 18.1835 23.3836 17.0859 23.7804 15.9019C24.1868 14.6763 24.39 13.4123 24.39 12.1099C24.39 10.8075 24.1868 9.54346 23.7804 8.31786C23.3836 7.13386 22.8156 6.03626 22.0764 5.02506C21.3436 4.02346 20.4764 3.15626 19.4748 2.42346C18.4636 1.68426 17.366 1.11626 16.182 0.719462C14.9564 0.313062 13.6924 0.109862 12.39 0.109862C11.0876 0.109862 9.82362 0.313062 8.59802 0.719462C7.41401 1.11626 6.31641 1.68426 5.30521 2.42346C4.30361 3.15626 3.43641 4.02346 2.70361 5.02506C1.96441 6.03626 1.39641 7.13386 0.999615 8.31786C0.593215 9.54346 0.390015 10.8075 0.390015 12.1099C0.390015 13.4123 0.593215 14.6763 0.999615 15.9019C1.39641 17.0859 1.96441 18.1835 2.70361 19.1947C3.43641 20.1963 4.30361 21.0635 5.30521 21.7963C6.31641 22.5355 7.41401 23.1035 8.59802 23.5003C9.82362 23.9067 11.0876 24.1099 12.39 24.1099ZM5.65081 8.89866C5.67321 8.57866 5.76761 8.28426 5.93401 8.01546C6.09721 7.75306 6.31161 7.54346 6.57721 7.38666C6.84921 7.22346 7.14521 7.13546 7.46521 7.12266C9.53242 7.02026 11.174 6.96906 12.39 6.96906C13.606 6.96906 15.2476 7.02026 17.3148 7.12266C17.6348 7.13546 17.9308 7.22346 18.2028 7.38666C18.4684 7.54346 18.6828 7.75306 18.846 8.01546C19.0124 8.28426 19.1068 8.57866 19.1292 8.89866C19.2092 10.1275 19.2492 11.1163 19.2492 11.8651C19.2492 12.6139 19.2092 13.6027 19.1292 14.8315C19.1068 15.1515 19.0124 15.4459 18.846 15.7147C18.6828 15.9739 18.4684 16.1835 18.2028 16.3435C17.9308 16.5035 17.6348 16.5915 17.3148 16.6075C15.2476 16.7099 13.606 16.7611 12.39 16.7611C11.174 16.7611 9.53242 16.7099 7.46521 16.6075C7.14521 16.5915 6.84921 16.5035 6.57721 16.3435C6.31161 16.1835 6.09721 15.9739 5.93401 15.7147C5.76761 15.4459 5.67321 15.1515 5.65081 14.8315C5.57081 13.6027 5.53081 12.6139 5.53081 11.8651C5.53081 11.1163 5.57081 10.1275 5.65081 8.89866ZM10.9212 13.8235L14.838 11.8651L10.9212 9.90666V13.8235Z" fill="#A4B1CD"/>
</g>
<defs>
<clipPath id="clip0_38_2550">
<rect width="24.02" height="24" fill="white" transform="matrix(1 0 0 -1 0.380005 24.1099)"/>
</clipPath>
</defs>
</svg>
